<svg width="2337" height="417" viewBox="0 0 2337 417" fill="none" xmlns="http://www.w3.org/2000/svg">
<path d="M1088.11 74.7H1134.31L1220.44 309H1173.58L1151.8 250.59H1069.96L1048.51 309H1001.65L1088.11 74.7ZM1143.55 218.58L1111.21 121.89L1077.55 218.58H1143.55ZM1304.66 309.99C1293.22 309.99 1282.66 307.79 1272.98 303.39C1263.52 298.77 1255.27 292.39 1248.23 284.25C1241.41 276.11 1236.13 266.76 1232.39 256.2C1228.65 245.64 1226.78 234.42 1226.78 222.54C1226.78 210 1228.76 198.34 1232.72 187.56C1236.68 176.78 1242.18 167.32 1249.22 159.18C1256.48 150.82 1264.95 144.44 1274.63 140.04C1284.53 135.42 1295.42 133.11 1307.3 133.11C1320.72 133.11 1332.49 136.19 1342.61 142.35C1352.73 148.29 1361.09 156.32 1367.69 166.44V136.08H1406.3V300.75C1406.3 317.91 1402.12 332.54 1393.76 344.64C1385.62 356.96 1374.29 366.31 1359.77 372.69C1345.25 379.29 1328.75 382.59 1310.27 382.59C1291.57 382.59 1275.73 379.4 1262.75 373.02C1249.77 366.86 1238.66 358.06 1229.42 346.62L1253.51 323.19C1260.11 331.33 1268.36 337.71 1278.26 342.33C1288.38 346.95 1299.05 349.26 1310.27 349.26C1319.73 349.26 1328.31 347.5 1336.01 343.98C1343.93 340.68 1350.2 335.4 1354.82 328.14C1359.66 321.1 1362.08 311.97 1362.08 300.75V278.97C1356.36 288.87 1348.22 296.57 1337.66 302.07C1327.32 307.35 1316.32 309.99 1304.66 309.99ZM1319.51 274.68C1324.35 274.68 1328.97 273.91 1333.37 272.37C1337.77 270.83 1341.84 268.74 1345.58 266.1C1349.32 263.46 1352.62 260.38 1355.48 256.86C1358.34 253.12 1360.54 249.38 1362.08 245.64V204.39C1359.44 197.57 1355.7 191.63 1350.86 186.57C1346.24 181.51 1340.96 177.66 1335.02 175.02C1329.3 172.16 1323.25 170.73 1316.87 170.73C1310.05 170.73 1303.89 172.16 1298.39 175.02C1292.89 177.88 1288.16 181.95 1284.2 187.23C1280.24 192.29 1277.16 198.01 1274.96 204.39C1272.98 210.55 1271.99 217.04 1271.99 223.86C1271.99 230.9 1273.2 237.5 1275.62 243.66C1278.04 249.82 1281.34 255.21 1285.52 259.83C1289.92 264.45 1294.98 268.08 1300.7 270.72C1306.64 273.36 1312.91 274.68 1319.51 274.68ZM1549.13 174.36C1535.71 174.36 1523.72 177 1513.16 182.28C1502.6 187.34 1495.01 194.71 1490.39 204.39V309H1446.17V136.08H1486.76V173.04C1492.92 161.16 1500.73 151.81 1510.19 144.99C1519.65 138.17 1529.66 134.43 1540.22 133.77C1542.64 133.77 1544.51 133.77 1545.83 133.77C1547.15 133.77 1548.25 133.88 1549.13 134.1V174.36ZM1560.94 257.85C1560.94 246.63 1564.02 236.84 1570.18 228.48C1576.56 219.9 1585.36 213.3 1596.58 208.68C1607.8 204.06 1620.67 201.75 1635.19 201.75C1642.45 201.75 1649.82 202.3 1657.3 203.4C1664.78 204.5 1671.27 206.26 1676.77 208.68V199.44C1676.77 188.44 1673.47 179.97 1666.87 174.03C1660.49 168.09 1650.92 165.12 1638.16 165.12C1628.7 165.12 1619.68 166.77 1611.1 170.07C1602.52 173.37 1593.5 178.21 1584.04 184.59L1569.85 155.55C1581.29 148.07 1592.95 142.46 1604.83 138.72C1616.93 134.98 1629.58 133.11 1642.78 133.11C1667.42 133.11 1686.56 139.27 1700.2 151.59C1714.06 163.91 1720.99 181.51 1720.99 204.39V259.5C1720.99 264.12 1721.76 267.42 1723.3 269.4C1725.06 271.38 1727.81 272.59 1731.55 273.03V309C1727.59 309.66 1723.96 310.21 1720.66 310.65C1717.58 311.09 1714.94 311.31 1712.74 311.31C1703.94 311.31 1697.23 309.33 1692.61 305.37C1688.21 301.41 1685.46 296.57 1684.36 290.85L1683.37 281.94C1675.89 291.62 1666.54 299.1 1655.32 304.38C1644.1 309.66 1632.66 312.3 1621 312.3C1609.56 312.3 1599.22 309.99 1589.98 305.37C1580.96 300.53 1573.81 294.04 1568.53 285.9C1563.47 277.54 1560.94 268.19 1560.94 257.85ZM1668.52 266.76C1670.94 264.12 1672.92 261.48 1674.46 258.84C1676 256.2 1676.77 253.78 1676.77 251.58V234.09C1671.49 231.89 1665.77 230.24 1659.61 229.14C1653.45 227.82 1647.62 227.16 1642.12 227.16C1630.68 227.16 1621.22 229.69 1613.74 234.75C1606.48 239.59 1602.85 246.08 1602.85 254.22C1602.85 258.62 1604.06 262.8 1606.48 266.76C1608.9 270.72 1612.42 273.91 1617.04 276.33C1621.66 278.75 1627.16 279.96 1633.54 279.96C1640.14 279.96 1646.63 278.75 1653.01 276.33C1659.39 273.69 1664.56 270.5 1668.52 266.76ZM1970.36 136.08H2012.27L1940 309H1903.04L1874 234.75L1845.62 309H1808.33L1736.39 136.08H1777.97L1829.45 266.76L1849.58 210.33L1819.55 136.41H1856.18L1874 189.21L1892.15 136.41H1928.78L1898.75 210.33L1919.21 266.76L1970.36 136.08ZM2016.62 257.85C2016.62 246.63 2019.7 236.84 2025.86 228.48C2032.24 219.9 2041.04 213.3 2052.26 208.68C2063.48 204.06 2076.35 201.75 2090.87 201.75C2098.13 201.75 2105.5 202.3 2112.98 203.4C2120.46 204.5 2126.95 206.26 2132.45 208.68V199.44C2132.45 188.44 2129.15 179.97 2122.55 174.03C2116.17 168.09 2106.6 165.12 2093.84 165.12C2084.38 165.12 2075.36 166.77 2066.78 170.07C2058.2 173.37 2049.18 178.21 2039.72 184.59L2025.53 155.55C2036.97 148.07 2048.63 142.46 2060.51 138.72C2072.61 134.98 2085.26 133.11 2098.46 133.11C2123.1 133.11 2142.24 139.27 2155.88 151.59C2169.74 163.91 2176.67 181.51 2176.67 204.39V259.5C2176.67 264.12 2177.44 267.42 2178.98 269.4C2180.74 271.38 2183.49 272.59 2187.23 273.03V309C2183.27 309.66 2179.64 310.21 2176.34 310.65C2173.26 311.09 2170.62 311.31 2168.42 311.31C2159.62 311.31 2152.91 309.33 2148.29 305.37C2143.89 301.41 2141.14 296.57 2140.04 290.85L2139.05 281.94C2131.57 291.62 2122.22 299.1 2111 304.38C2099.78 309.66 2088.34 312.3 2076.68 312.3C2065.24 312.3 2054.9 309.99 2045.66 305.37C2036.64 300.53 2029.49 294.04 2024.21 285.9C2019.15 277.54 2016.62 268.19 2016.62 257.85ZM2124.2 266.76C2126.62 264.12 2128.6 261.48 2130.14 258.84C2131.68 256.2 2132.45 253.78 2132.45 251.58V234.09C2127.17 231.89 2121.45 230.24 2115.29 229.14C2109.13 227.82 2103.3 227.16 2097.8 227.16C2086.36 227.16 2076.9 229.69 2069.42 234.75C2062.16 239.59 2058.53 246.08 2058.53 254.22C2058.53 258.62 2059.74 262.8 2062.16 266.76C2064.58 270.72 2068.1 273.91 2072.72 276.33C2077.34 278.75 2082.84 279.96 2089.22 279.96C2095.82 279.96 2102.31 278.75 2108.69 276.33C2115.07 273.69 2120.24 270.5 2124.2 266.76ZM2217.66 68.1H2261.88V253.56C2261.88 261.48 2263.2 266.87 2265.84 269.73C2268.48 272.37 2272.11 273.69 2276.73 273.69C2280.25 273.69 2283.88 273.25 2287.62 272.37C2291.36 271.49 2294.66 270.39 2297.52 269.07L2303.46 302.73C2297.52 305.59 2290.59 307.79 2282.67 309.33C2274.75 310.87 2267.6 311.64 2261.22 311.64C2247.36 311.64 2236.58 308.01 2228.88 300.75C2221.4 293.27 2217.66 282.71 2217.66 269.07V68.1Z" fill="white"/>
<path d="M125.11 74.7H171.31L257.44 309H210.58L188.8 250.59H106.96L85.51 309H38.65L125.11 74.7ZM180.55 218.58L148.21 121.89L114.55 218.58H180.55ZM439.559 309H395.339V211.98C395.339 198.12 392.919 188 388.079 181.62C383.239 175.24 376.529 172.05 367.949 172.05C362.009 172.05 355.959 173.59 349.799 176.67C343.859 179.75 338.469 184.04 333.629 189.54C328.789 194.82 325.269 200.98 323.069 208.02V309H278.849V136.08H318.779V168.09C323.179 160.61 328.789 154.34 335.609 149.28C342.429 144 350.239 140.04 359.039 137.4C368.059 134.54 377.519 133.11 387.419 133.11C398.199 133.11 406.999 135.09 413.819 139.05C420.859 142.79 426.139 147.96 429.659 154.56C433.399 160.94 435.929 168.2 437.249 176.34C438.789 184.48 439.559 192.73 439.559 201.09V309ZM541.699 312.3C526.959 312.3 512.879 309.88 499.459 305.04C486.039 300.2 474.489 293.05 464.809 283.59L480.649 254.88C490.989 263.24 501.109 269.4 511.009 273.36C521.129 277.32 530.809 279.3 540.049 279.3C548.629 279.3 555.449 277.76 560.509 274.68C565.789 271.6 568.429 266.98 568.429 260.82C568.429 256.64 566.999 253.45 564.139 251.25C561.279 248.83 557.099 246.74 551.599 244.98C546.319 243.22 539.829 241.24 532.129 239.04C519.369 234.86 508.699 230.79 500.119 226.83C491.539 222.87 485.049 217.92 480.649 211.98C476.469 205.82 474.379 198.01 474.379 188.55C474.379 177.11 477.239 167.32 482.959 159.18C488.899 150.82 497.039 144.33 507.379 139.71C517.939 135.09 530.259 132.78 544.339 132.78C556.659 132.78 568.319 134.76 579.319 138.72C590.319 142.46 600.329 148.62 609.349 157.2L591.529 185.25C582.729 178.43 574.369 173.48 566.449 170.4C558.529 167.1 550.499 165.45 542.359 165.45C537.739 165.45 533.339 166 529.159 167.1C525.199 168.2 521.899 170.07 519.259 172.71C516.839 175.13 515.629 178.65 515.629 183.27C515.629 187.45 516.729 190.75 518.929 193.17C521.349 195.37 524.869 197.35 529.489 199.11C534.329 200.87 540.159 202.85 546.979 205.05C560.839 209.01 572.499 213.08 581.959 217.26C591.639 221.44 598.899 226.61 603.739 232.77C608.579 238.71 610.999 246.96 610.999 257.52C610.999 274.68 604.729 288.1 592.189 297.78C579.649 307.46 562.819 312.3 541.699 312.3ZM639.425 244.32V136.08H683.645V234.75C683.645 247.95 686.065 257.96 690.905 264.78C695.745 271.38 702.895 274.68 712.355 274.68C718.075 274.68 723.685 273.58 729.185 271.38C734.905 268.96 740.075 265.44 744.695 260.82C749.535 256.2 753.605 250.37 756.905 243.33V136.08H801.125V259.5C801.125 264.12 801.895 267.42 803.435 269.4C805.195 271.38 807.945 272.59 811.685 273.03V309C807.285 309.66 803.545 310.1 800.465 310.32C797.605 310.76 794.965 310.98 792.545 310.98C784.625 310.98 778.135 309.22 773.075 305.7C768.235 301.96 765.375 296.9 764.495 290.52L763.505 276.66C755.805 288.32 745.905 297.23 733.805 303.39C721.705 309.33 708.395 312.3 693.875 312.3C676.055 312.3 662.525 306.58 653.285 295.14C644.045 283.48 639.425 266.54 639.425 244.32ZM844.739 68.1H888.959V253.56C888.959 261.48 890.279 266.87 892.919 269.73C895.559 272.37 899.189 273.69 903.809 273.69C907.329 273.69 910.959 273.25 914.699 272.37C918.439 271.49 921.739 270.39 924.599 269.07L930.539 302.73C924.599 305.59 917.669 307.79 909.749 309.33C901.829 310.87 894.679 311.64 888.299 311.64C874.439 311.64 863.659 308.01 855.959 300.75C848.479 293.27 844.739 282.71 844.739 269.07V68.1Z" fill="#CE5FF8"/>
</svg>
